<svg id="visual" viewBox="0 0 600 900" width="600" height="900" xmlns="http://www.w3.org/2000/svg" xmlns:xlink="http://www.w3.org/1999/xlink" version="1.1"><rect x="0" y="0" width="600" height="900" fill="#6A2C70"></rect><path d="M0 542L25 557.8C50 573.7 100 605.3 150 630.3C200 655.3 250 673.7 300 654.8C350 636 400 580 450 583.8C500 587.7 550 651.3 575 683.2L600 715L600 901L575 901C550 901 500 901 450 901C400 901 350 901 300 901C250 901 200 901 150 901C100 901 50 901 25 901L0 901Z" fill="#F9ED69" stroke-linecap="round" stroke-linejoin="miter"></path></svg>