<svg id="visual" viewBox="0 0 540 960" width="540" height="960" xmlns="http://www.w3.org/2000/svg" xmlns:xlink="http://www.w3.org/1999/xlink" version="1.1"><rect x="0" y="0" width="540" height="960" fill="#6a2c70"></rect><path d="M0 635L22.5 660C45 685 90 735 135 718.8C180 702.7 225 620.3 270 617C315 613.7 360 689.3 405 709.3C450 729.3 495 693.7 517.5 675.8L540 658L540 961L517.5 961C495 961 450 961 405 961C360 961 315 961 270 961C225 961 180 961 135 961C90 961 45 961 22.5 961L0 961Z" fill="#f9ed69" stroke-linecap="round" stroke-linejoin="miter"></path></svg>