<svg id="visual" viewBox="0 0 900 1200" width="900" height="1200" xmlns="http://www.w3.org/2000/svg" xmlns:xlink="http://www.w3.org/1999/xlink" version="1.1"><rect x="0" y="0" width="900" height="1200" fill="#6a2c70"></rect><path d="M0 794L37.5 825.3C75 856.7 150 919.3 225 899.2C300 879 375 776 450 771.8C525 767.7 600 862.3 675 887.2C750 912 825 867 862.5 844.5L900 822L900 1201L862.5 1201C825 1201 750 1201 675 1201C600 1201 525 1201 450 1201C375 1201 300 1201 225 1201C150 1201 75 1201 37.5 1201L0 1201Z" fill="#f9ed69" stroke-linecap="round" stroke-linejoin="miter"></path></svg>