<svg id="visual" viewBox="0 0 960 540" width="960" height="540" xmlns="http://www.w3.org/2000/svg" xmlns:xlink="http://www.w3.org/1999/xlink" version="1.1"><rect x="0" y="0" width="960" height="540" fill="#6a2c70"></rect><path d="M0 357L40 371C80 385 160 413 240 403.8C320 394.7 400 348.3 480 346.5C560 344.7 640 387.3 720 398.5C800 409.7 880 389.3 920 379.2L960 369L960 541L920 541C880 541 800 541 720 541C640 541 560 541 480 541C400 541 320 541 240 541C160 541 80 541 40 541L0 541Z" fill="#f9ed69" stroke-linecap="round" stroke-linejoin="miter"></path></svg>