<svg id="visual" viewBox="0 0 1400 675" width="1400" height="675" xmlns="http://www.w3.org/2000/svg" xmlns:xlink="http://www.w3.org/1999/xlink" version="1.1"><rect x="0" y="0" width="1400" height="675" fill="#6a2c70"></rect><path d="M0 446L58.3 463.7C116.7 481.3 233.3 516.7 350 505.3C466.7 494 583.3 436 700 433.7C816.7 431.3 933.3 484.7 1050 498.7C1166.7 512.7 1283.3 487.3 1341.7 474.7L1400 462L1400 676L1341.7 676C1283.3 676 1166.7 676 1050 676C933.3 676 816.7 676 700 676C583.3 676 466.7 676 350 676C233.3 676 116.7 676 58.3 676L0 676Z" fill="#f9ed69" stroke-linecap="round" stroke-linejoin="miter"></path></svg>